<svg viewBox="-160 0 480 480" height="45px" width="45px" xmlns="http://www.w3.org/2000/svg"><path d="m8 272h144v200h-144zm0 0" fill="#b11e48"/><path d="m16 232h128v40h-128zm0 0" fill="#7d8d9c"/><path d="m32 168h96v64h-96zm0 0" fill="#cfdfe8"/><path d="m40 8c44.183594 0 80 35.816406 80 80v80h-80zm0 0" fill="#dd3e46"/><path d="m40 8s0 80 80 80c0-44.183594-35.816406-80-80-80zm0 0" fill="#f98c96"/><path d="m120 408c-4.417969 0-8-3.582031-8-8v-96c0-4.417969 3.582031-8 8-8s8 3.582031 8 8v96c0 4.417969-3.582031 8-8 8zm0 0" fill="#fff"/><path d="m120 448c-4.417969 0-8-3.582031-8-8v-8c0-4.417969 3.582031-8 8-8s8 3.582031 8 8v8c0 4.417969-3.582031 8-8 8zm0 0" fill="#fff"/><path d="m40 0c-4.417969 0-8 3.582031-8 8v152c-4.417969 0-8 3.582031-8 8v56h-8c-4.417969 0-8 3.582031-8 8v32c-4.417969 0-8 3.582031-8 8v200c0 4.417969 3.582031 8 8 8h144c4.417969 0 8-3.582031 8-8v-200c0-4.417969-3.582031-8-8-8v-32c0-4.417969-3.582031-8-8-8h-8v-56c0-4.417969-3.582031-8-8-8v-72c-.058594-48.578125-39.421875-87.9414062-88-88zm13.910156 17.382812c.257813.050782.523438.074219.800782.128907 2.109374.4375 4.171874.972656 6.191406 1.601562.601562.183594 1.175781.414063 1.769531.613281 1.40625.472657 2.816406.945313 4.183594 1.496094.746093.296875 1.457031.648438 2.183593.96875 1.183594.527344 2.402344 1.054688 3.527344 1.640625.761719.382813 1.496094.800781 2.242188 1.230469 1.070312.59375 2.144531 1.195312 3.199218 1.839844.753907.472656 1.472657.960937 2.199219 1.457031.992188.671875 1.976563 1.351563 2.929688 2.066406.71875.535157 1.414062 1.09375 2.109375 1.652344.914062.746094 1.816406 1.507813 2.699218 2.296875.664063.59375 1.320313 1.191406 1.957032 1.816406.859375.800782 1.683594 1.664063 2.496094 2.527344.609374.648438 1.21875 1.296875 1.800781 1.960938.800781.90625 1.542969 1.839843 2.289062 2.777343.535157.679688 1.078125 1.359375 1.601563 2.054688.726562 1 1.414062 2.039062 2.09375 3.074219.464844.695312.9375 1.382812 1.367187 2.09375.695313 1.136718 1.328125 2.3125 1.960938 3.488281.351562.65625.726562 1.296875 1.0625 1.96875.738281 1.488281 1.394531 3.007812 2.035156 4.550781.160156.402344.359375.800781.519531 1.183594.757813 1.941406 1.429688 3.929687 2.023438 5.96875.183594.617187.3125 1.257812.472656 1.886718.375 1.425782.742188 2.847657 1.03125 4.296876.167969.855468.273438 1.71875.40625 2.585937.167969 1.007813.320312 2.023437.441406 3.046875-49.441406-4.199219-60.367187-44.929688-62.777344-63.089844 1.734376.210938 3.460938.480469 5.183594.816406zm-5.910156 42.976563c14.113281 21.710937 38.105469 34.976563 64 35.382813v64.257812h-64zm-8 115.640625h80v48h-80zm104 104v184h-128v-184zm-8-40v24h-112v-24zm0 0"/><path d="m120 408c4.417969 0 8-3.582031 8-8v-96c0-4.417969-3.582031-8-8-8s-8 3.582031-8 8v96c0 4.417969 3.582031 8 8 8zm0 0"/><path d="m120 448c4.417969 0 8-3.582031 8-8v-8c0-4.417969-3.582031-8-8-8s-8 3.582031-8 8v8c0 4.417969 3.582031 8 8 8zm0 0"/></svg>